<svg xmlns="http://www.w3.org/2000/svg" width="620" height="143" viewBox="0 0 620 143" role="img" aria-label="status">
<rect width="100%" height="100%" rx="8" fill="#0D0D0F"/>
<text xml:space="preserve" font-family="ui-monospace, SFMono-Regular, Menlo, Monaco, Consolas, Liberation Mono, monospace" font-size="13" letter-spacing="0">
<tspan x="8.0" y="23" fill="#585858">╭─</tspan>
<tspan x="24.8" y="23" fill="#D787FF" font-weight="700"> node </tspan>
<tspan x="75.2" y="23" fill="#585858">───────────────────────────────────────────────────────────────╮</tspan>
<tspan x="8.0" y="40" fill="#585858">│</tspan>
<tspan x="16.4" y="40" fill="#EEEEEE">                                                                      </tspan>
<tspan x="604.4" y="40" fill="#585858">│</tspan>
<tspan x="8.0" y="57" fill="#585858">│</tspan>
<tspan x="16.4" y="57" fill="#EEEEEE">  </tspan>
<tspan x="33.2" y="57" fill="#8A8A8A">Home            </tspan>
<tspan x="167.6" y="57" fill="#EEEEEE">  </tspan>
<tspan x="184.4" y="57" fill="#EEEEEE">~/.local/share/aioz/ai-nodes/&lt;uuid&gt;/</tspan>
<tspan x="486.8" y="57" fill="#EEEEEE">              </tspan>
<tspan x="604.4" y="57" fill="#585858">│</tspan>
<tspan x="8.0" y="74" fill="#585858">│</tspan>
<tspan x="16.4" y="74" fill="#EEEEEE">  </tspan>
<tspan x="33.2" y="74" fill="#8A8A8A">Status          </tspan>
<tspan x="167.6" y="74" fill="#EEEEEE">  </tspan>
<tspan x="184.4" y="74" fill="#8A8A8A">stopped</tspan>
<tspan x="243.2" y="74" fill="#EEEEEE">                                           </tspan>
<tspan x="604.4" y="74" fill="#585858">│</tspan>
<tspan x="8.0" y="91" fill="#585858">│</tspan>
<tspan x="16.4" y="91" fill="#EEEEEE">  </tspan>
<tspan x="33.2" y="91" fill="#8A8A8A">ETH             </tspan>
<tspan x="167.6" y="91" fill="#EEEEEE">  </tspan>
<tspan x="184.4" y="91" fill="#EEEEEE">0xAbc0…def1</tspan>
<tspan x="276.8" y="91" fill="#EEEEEE">                                       </tspan>
<tspan x="604.4" y="91" fill="#585858">│</tspan>
<tspan x="8.0" y="108" fill="#585858">│</tspan>
<tspan x="16.4" y="108" fill="#EEEEEE">                                                                      </tspan>
<tspan x="604.4" y="108" fill="#585858">│</tspan>
<tspan x="8.0" y="125" fill="#585858">╰──────────────────────────────────────────────────────────────────────╯</tspan>
</text></svg>